<svg xmlns="http://www.w3.org/2000/svg" version="1.1" xmlns:xlink="http://www.w3.org/1999/xlink" xmlns:svgjs="http://svgjs.dev/svgjs" viewBox="0 0 800 800">
  <defs>
    <radialGradient id="cccircular-grad" r="50%" cx="50%" cy="50%">
      <stop offset="15%" stop-color="#0061a5" stop-opacity="0.5"></stop>
      <stop offset="75%" stop-color="hsl(205, 69%, 50%)" stop-opacity="1"></stop>
      <stop offset="100%" stop-color="#a3f0ff" stop-opacity="1"></stop>
    </radialGradient>
  </defs>
  <g fill="url(#cccircular-grad)">
    <circle r="462" cx="400" cy="800" opacity="0.05"></circle>
    <circle r="440" cx="400" cy="800" opacity="0.10"></circle>
    <circle r="418" cx="400" cy="800" opacity="0.15"></circle>
    <circle r="396" cx="400" cy="800" opacity="0.19"></circle>
    <circle r="374" cx="400" cy="800" opacity="0.24"></circle>
    <circle r="352" cx="400" cy="800" opacity="0.29"></circle>
    <circle r="330" cx="400" cy="800" opacity="0.33"></circle>
    <circle r="308" cx="400" cy="800" opacity="0.38"></circle>
    <circle r="286" cx="400" cy="800" opacity="0.43"></circle>
    <circle r="264" cx="400" cy="800" opacity="0.48"></circle>
    <circle r="242" cx="400" cy="800" opacity="0.53"></circle>
    <circle r="220" cx="400" cy="800" opacity="0.57"></circle>
    <circle r="198" cx="400" cy="800" opacity="0.62"></circle>
    <circle r="176" cx="400" cy="800" opacity="0.67"></circle>
    <circle r="154" cx="400" cy="800" opacity="0.71"></circle>
    <circle r="132" cx="400" cy="800" opacity="0.76"></circle>
    <circle r="110" cx="400" cy="800" opacity="0.81"></circle>
    <circle r="88" cx="400" cy="800" opacity="0.86"></circle>
    <circle r="66" cx="400" cy="800" opacity="0.91"></circle>
    <circle r="44" cx="400" cy="800" opacity="0.95"></circle>
  </g>
  <rect width="800" height="800" fill="rgba(255,255,255,0.5)"></rect>
</svg>